<svg width="34" height="34" viewBox="0 0 34 34" fill="none" xmlns="http://www.w3.org/2000/svg">
<rect x="1" y="1" width="32" height="32" rx="16" stroke="white" stroke-width="1.82857"/>
<path d="M21.1331 10.8354V12.5094H18.6576V25.5H16.8422C16.3707 24.5569 15.7184 23.6925 14.8854 22.9066C14.0681 22.105 13.125 21.4291 12.0562 20.879C10.9874 20.3289 9.84786 19.9595 8.6376 19.7709L7.71812 17.5076C9.22702 16.596 10.7831 15.7708 12.3863 15.032C14.0052 14.2933 15.6713 13.6646 17.3845 13.1459L16.8422 14.1361V12.5094H6.61003V10.8354H21.1331ZM16.8422 14.3248L17.3373 14.9849C16.1428 15.3778 14.8854 15.8651 13.5651 16.4466C12.2448 17.0125 11.0267 17.6412 9.91073 18.3328C10.7595 18.5214 11.6633 18.8436 12.622 19.2994C13.5808 19.7552 14.4689 20.3289 15.2862 21.0205C16.1035 21.712 16.7322 22.5136 17.1723 23.4253H16.9601C16.9287 23.0638 16.8972 22.7023 16.8658 22.3408C16.8501 21.9792 16.8422 21.547 16.8422 21.044V14.3248ZM27.3975 10.8354V12.5094H24.9219V25.5H23.1066V14.4426C22.9179 13.9082 22.635 13.4524 22.2578 13.0752C21.8963 12.698 21.4248 12.5094 20.8432 12.5094H20.6546V10.8354H21.0083C21.3855 10.8354 21.7784 10.9612 22.1871 11.2127C22.5957 11.4484 22.9258 11.8178 23.1773 12.3208C23.1616 12.2422 23.1459 12.0614 23.1301 11.7785C23.1144 11.4956 23.1066 11.252 23.1066 11.0476V9.27939H24.3797L24.8984 10.8354H27.3975Z" fill="white"/>
</svg>
