<svg width="34" height="34" viewBox="0 0 34 34" fill="none" xmlns="http://www.w3.org/2000/svg">
<rect x="1" y="1" width="32" height="32" rx="16" stroke="white" stroke-width="1.82857"/>
<path d="M9.66209 22V11.3964H16.0615V12.5354H10.9461V16.1183H15.7302V17.2574H10.9461V20.8609H16.1444V22H9.66209ZM19.4321 17.2159V22H18.2102V14.0473H19.3907V15.2899H19.4943C19.6807 14.886 19.9637 14.5616 20.3434 14.3165C20.7231 14.068 21.2132 13.9437 21.8138 13.9437C22.3523 13.9437 22.8234 14.0542 23.2273 14.2751C23.6311 14.4925 23.9452 14.8239 24.1696 15.2692C24.394 15.711 24.5061 16.2702 24.5061 16.9467V22H23.2842V17.0295C23.2842 16.4048 23.122 15.9181 22.7975 15.5695C22.4731 15.2174 22.0278 15.0414 21.4617 15.0414C21.0717 15.0414 20.7231 15.1259 20.4159 15.2951C20.1121 15.4642 19.8722 15.711 19.6962 16.0355C19.5202 16.3599 19.4321 16.7534 19.4321 17.2159Z" fill="white"/>
</svg>
