<svg width="34" height="34" viewBox="0 0 34 34" fill="none" xmlns="http://www.w3.org/2000/svg">
<rect x="1" y="1" width="32" height="32" rx="16" stroke="white" stroke-width="1.82857"/>
<path d="M14.2374 21.3034C13.6558 21.3034 13.09 21.2091 12.5399 21.0205C12.0055 20.8161 11.4868 20.5018 10.9838 20.0774C10.4966 19.6373 10.0172 19.0636 9.54567 18.3563L11.031 17.3425C11.5654 18.1441 12.0683 18.7178 12.5399 19.0636C13.0114 19.4094 13.5458 19.5823 14.1431 19.5823C14.7875 19.5823 15.314 19.3387 15.7227 18.8514C16.1314 18.3642 16.3357 17.5626 16.3357 16.4466C16.3357 15.2364 16.0999 14.364 15.6284 13.8296C15.1726 13.2795 14.536 13.0045 13.7187 13.0045C13.2315 13.0045 12.7678 13.0673 12.3277 13.1931C11.8876 13.3031 11.4947 13.4524 11.1489 13.641L10.5595 12.0614C11.0781 11.7942 11.6204 11.5977 12.1862 11.472C12.7678 11.3463 13.31 11.2834 13.813 11.2834C14.6932 11.2834 15.4634 11.472 16.1235 11.8492C16.7836 12.2107 17.3023 12.7766 17.6795 13.5467C18.0568 14.3012 18.2454 15.2757 18.2454 16.4702C18.2454 17.4761 18.1196 18.2935 17.8682 18.9222C17.6324 19.5509 17.318 20.0381 16.9251 20.3839C16.5322 20.7297 16.0999 20.9733 15.6284 21.1148C15.1569 21.2405 14.6932 21.3034 14.2374 21.3034ZM24.0688 25.5C23.3929 25.5 22.8271 25.4293 22.3713 25.2878C21.9312 25.1306 21.5775 24.9106 21.3103 24.6277C21.0588 24.3605 20.8702 24.0304 20.7445 23.6375C20.6345 23.2445 20.5795 22.7023 20.5795 22.0107V11.2834L22.4656 11.5427V21.9164C22.4656 22.3408 22.4891 22.6551 22.5363 22.8594C22.5835 23.048 22.6542 23.2052 22.7485 23.331C22.9214 23.551 23.1729 23.6846 23.5029 23.7318C23.8487 23.7632 24.1867 23.7789 24.5167 23.7789L24.3281 25.5H24.0688Z" fill="white"/>
</svg>
