<svg width="34" height="34" viewBox="0 0 34 34" fill="none" xmlns="http://www.w3.org/2000/svg">
<rect x="1" y="1" width="32" height="32" rx="16" stroke="white" stroke-width="1.82857"/>
<path d="M12.1489 13.1228V25H10.4029V13.1228H8.48444V11.5924H10.252C9.864 10.8595 9.62688 10.1051 9.62688 9.24283C9.62688 7.06572 11.3082 5.68616 14.1105 5.68616C18.1198 5.68616 21.3963 7.92794 23.5949 11.7433H21.7843C19.9951 8.89794 17.3222 7.2166 14.3907 7.2166C12.4938 7.2166 11.3729 8.10039 11.3729 9.56617C11.3729 10.3637 11.6531 10.9888 12.0196 11.5924H14.3691V13.1228H12.1489ZM21.2408 23.6204C22.2539 23.1893 22.7928 22.5427 22.7928 21.8529C22.7928 20.9044 22.0815 20.2146 20.3355 20.2146C18.3524 20.2146 17.2746 21.0984 17.2746 22.5427C17.2746 24.2671 19.1284 25.3233 22.3186 26.5951L21.4564 28.0609C18.0937 26.7029 15.5501 25.194 15.5501 22.478C15.5501 21.2709 16.0244 20.344 16.8219 19.7189C16.0459 19.0291 15.5501 18.2962 15.5501 17.3693C15.5501 15.8173 16.6279 14.9766 18.8697 14.9766H21.8444V13.1228H14.0628V11.5924H25.8106V13.1228H23.5904V16.5071H19.1068C17.835 16.5071 17.2746 16.8735 17.2746 17.6495C17.2746 18.1884 17.6841 18.7273 18.1153 19.0291C18.7835 18.792 19.5595 18.6842 20.3786 18.6842C23.3102 18.6842 24.4957 20.15 24.4957 21.8744C24.4957 23.0815 23.9784 24.0731 22.4695 24.8707L21.2408 23.6204Z" fill="white"/>
</svg>
