<svg width="34" height="34" viewBox="0 0 34 34" fill="none" xmlns="http://www.w3.org/2000/svg">
<rect x="1" y="1" width="32" height="32" rx="16" stroke="white" stroke-width="1.82857"/>
<path d="M16.9024 23.5903C15.8022 23.5903 14.8513 23.4096 14.0497 23.048C13.2638 22.6865 12.6587 22.1836 12.2343 21.5392C11.8099 20.879 11.5977 20.1167 11.5977 19.2522C11.5977 18.7493 11.6763 18.2777 11.8335 17.8376C12.0064 17.3976 12.2579 17.0046 12.588 16.6588C12.918 16.2973 13.3267 15.9908 13.8139 15.7393L14.144 16.0694L11.0791 16.093V14.4662H15.983C16.1559 14.3405 16.2973 14.1833 16.4073 13.9947C16.5331 13.7904 16.596 13.5624 16.596 13.311C16.596 13.0909 16.5567 12.8787 16.4781 12.6744C16.4152 12.4701 16.3209 12.2815 16.1952 12.1086L17.2561 11.8256L18.0813 12.1086C18.207 12.3129 18.3013 12.5251 18.3642 12.7451C18.4271 12.9652 18.4585 13.1616 18.4585 13.3345C18.4585 13.586 18.4271 13.8061 18.3642 13.9947C18.317 14.1676 18.2463 14.3248 18.152 14.4662H22.938V16.093L19.7788 16.0458L20.1324 15.8101C20.5882 15.983 20.9812 16.2344 21.3112 16.5645C21.657 16.8946 21.9242 17.2875 22.1128 17.7433C22.3015 18.1834 22.3958 18.6707 22.3958 19.2051C22.3958 20.0696 22.1914 20.8319 21.7828 21.492C21.3741 22.1521 20.7611 22.6708 19.9438 23.048C19.1422 23.4096 18.1284 23.5903 16.9024 23.5903ZM16.9968 21.7513C18.2542 21.7513 19.1501 21.4841 19.6845 20.9497C20.2346 20.3996 20.5096 19.7395 20.5096 18.9693C20.5096 18.3878 20.376 17.8848 20.1088 17.4604C19.8416 17.0203 19.4487 16.6824 18.93 16.4466C18.4113 16.2109 17.7669 16.093 16.9968 16.093C16.2109 16.093 15.5507 16.2187 15.0163 16.4702C14.4976 16.706 14.1126 17.0439 13.8611 17.484C13.6096 17.9084 13.4839 18.4035 13.4839 18.9693C13.4839 19.8024 13.7746 20.4782 14.3562 20.9969C14.9377 21.4999 15.8179 21.7513 16.9968 21.7513ZM11.0791 12.1321V10.3168H18.1048C18.9536 10.3168 19.5509 10.2775 19.8967 10.1989C20.2424 10.1203 20.4939 10.0181 20.6511 9.89237C20.8554 9.7352 20.989 9.5623 21.0519 9.37369C21.1305 9.16936 21.1698 8.95718 21.1698 8.73713C21.1698 8.21845 21.044 7.71548 20.7926 7.22823C20.5411 6.72527 20.156 6.21445 19.6373 5.69576L21.1698 4.68198C21.9085 5.49929 22.4115 6.23802 22.6787 6.89816C22.9459 7.54259 23.0795 8.20273 23.0795 8.87859C23.0795 9.17722 23.0166 9.54659 22.8909 9.98668C22.7808 10.4111 22.5215 10.7961 22.1128 11.1419C21.7199 11.4877 21.2484 11.7392 20.6983 11.8964C20.1639 12.0536 19.4408 12.1321 18.5292 12.1321H11.0791Z" fill="white"/>
</svg>
