<svg width="34" height="34" viewBox="0 0 34 34" fill="none" xmlns="http://www.w3.org/2000/svg">
<rect x="1" y="1" width="32" height="32" rx="16" stroke="white" stroke-width="1.82857"/>
<path d="M16.8266 10.5997C18.0683 10.5997 19.1292 10.749 20.0094 11.0476C20.9053 11.3305 21.644 11.7471 22.2256 12.2972C22.6657 12.6901 23.0193 13.1381 23.2865 13.641C23.5694 14.144 23.7738 14.7256 23.8995 15.3857C24.041 16.0458 24.1117 16.8081 24.1117 17.6726V23.944H9.89508V17.6255C9.89508 16.8081 9.95795 16.0773 10.0837 15.4328C10.2251 14.7727 10.4295 14.1912 10.6967 13.6882C10.9796 13.1695 11.3254 12.7137 11.734 12.3208C12.3156 11.7706 13.015 11.3463 13.8323 11.0476C14.6654 10.749 15.6635 10.5997 16.8266 10.5997ZM15.7185 12.2736C15.0583 12.2736 14.4768 12.4386 13.9738 12.7687C13.4708 13.0988 13.0622 13.5389 12.7478 14.089C12.4963 14.5291 12.292 15.0713 12.1348 15.7158C11.9934 16.3445 11.9227 17.1304 11.9227 18.0734V22.3408H12.0405C13.1093 21.5392 14.0603 20.6983 14.8933 19.8181C15.7263 18.9379 16.3786 18.042 16.8501 17.1304C17.3374 16.2187 17.581 15.3307 17.581 14.4662C17.581 14.0261 17.5103 13.6489 17.3688 13.3345C17.2431 13.0045 17.0466 12.7451 16.7794 12.5565C16.5122 12.3679 16.1586 12.2736 15.7185 12.2736ZM19.6086 14.6784C19.6086 15.6057 19.3964 16.5174 18.972 17.4133C18.5476 18.3092 17.9425 19.2129 17.1566 20.1246C16.3707 21.0205 15.4355 21.94 14.351 22.883L14.3039 22.4115C14.7597 22.38 15.2076 22.3565 15.6477 22.3408C16.0878 22.3093 16.5279 22.2936 16.968 22.2936H22.0841V18.0734C22.0841 16.9103 21.9662 15.9437 21.7305 15.1735C21.5104 14.4033 21.1411 13.7904 20.6224 13.3345C20.1037 12.863 19.42 12.5172 18.5712 12.2972L18.6184 12.1321C18.917 12.4779 19.1528 12.8473 19.3257 13.2402C19.5143 13.6175 19.6086 14.0968 19.6086 14.6784Z" fill="white"/>
</svg>
