<svg width="34" height="34" viewBox="0 0 34 34" fill="none" xmlns="http://www.w3.org/2000/svg">
<rect x="1" y="1" width="32" height="32" rx="16" stroke="white" stroke-width="1.82857"/>
<path d="M14.4865 20.199C13.8233 20.199 13.2264 20.094 12.6959 19.8839C12.1653 19.6739 11.7453 19.3644 11.4358 18.9555C11.1263 18.5465 10.9716 18.0546 10.9716 17.4798C10.9716 16.883 11.1263 16.369 11.4358 15.9379C11.7563 15.4958 12.2593 15.1586 12.9446 14.9265C13.6299 14.6833 14.5363 14.5618 15.6637 14.5618H18.0678C19.0294 14.5618 19.8861 14.6833 20.6377 14.9265C21.3893 15.1586 21.9751 15.551 22.3952 16.1037C22.8263 16.6564 23.0418 17.4135 23.0418 18.3752C23.0418 19.1157 22.9036 19.7347 22.6273 20.2321C22.351 20.7406 21.9586 21.1827 21.4501 21.5585C21.0854 21.8127 20.6709 22.0172 20.2066 22.172C19.7534 22.3267 19.2284 22.4317 18.6315 22.487C18.0346 22.5533 17.3383 22.5865 16.5424 22.5865H14.6689C14.2047 22.5865 13.8454 22.6196 13.5912 22.686C13.337 22.7523 13.1159 22.8462 12.928 22.9678C12.7511 23.0894 12.613 23.2607 12.5135 23.4818C12.414 23.7029 12.3643 23.9958 12.3643 24.3605C12.3643 24.5263 12.3698 24.6811 12.3809 24.8248C12.3919 24.9795 12.403 25.1232 12.414 25.2559L11.0545 25.3222C11.0213 25.1232 10.9937 24.9022 10.9716 24.659C10.9494 24.4269 10.9384 24.2168 10.9384 24.0289C10.9384 23.5426 11.0268 23.1281 11.2037 22.7854C11.3805 22.4538 11.6071 22.183 11.8835 21.973C12.0824 21.8293 12.2869 21.7133 12.4969 21.6248C12.718 21.5475 12.9667 21.4867 13.243 21.4425C13.5304 21.4093 13.8565 21.3927 14.2212 21.3927H16.0285C17.0122 21.3927 17.8191 21.3485 18.4491 21.2601C19.0792 21.1827 19.5876 21.0556 19.9745 20.8787C20.3614 20.7129 20.6819 20.4919 20.9361 20.2155C21.1572 19.9724 21.323 19.6905 21.4335 19.37C21.5551 19.0384 21.6159 18.6681 21.6159 18.2591C21.6159 17.7175 21.5054 17.2809 21.2843 16.9493C21.0743 16.6177 20.7869 16.3635 20.4222 16.1866C20.0684 16.0097 19.6705 15.8882 19.2284 15.8218C18.7973 15.7555 18.3552 15.7224 17.902 15.7224H15.5476C14.9839 15.7224 14.5031 15.7555 14.1052 15.8218C13.7183 15.8882 13.3867 15.9987 13.1104 16.1534C12.8672 16.2971 12.6848 16.474 12.5632 16.684C12.4527 16.883 12.3974 17.1427 12.3974 17.4633C12.3974 17.9717 12.6074 18.3586 13.0275 18.6239C13.4475 18.8781 13.9781 19.0052 14.6192 19.0052C15.1055 19.0052 15.52 18.9334 15.8627 18.7897C16.2164 18.6349 16.4872 18.3752 16.6751 18.0104C16.874 17.6346 16.9735 17.1206 16.9735 16.4685V12.0084H14.1218V14.9928L12.8119 15.2581V10.8147H21.4833V12.0084H18.3828V16.2529C18.3828 16.9935 18.3165 17.5738 18.1839 17.9938C18.0623 18.4138 17.8854 18.7676 17.6533 19.0549C17.3106 19.475 16.8685 19.7734 16.3269 19.9503C15.7963 20.1161 15.1829 20.199 14.4865 20.199Z" fill="white"/>
</svg>
