<svg width="34" height="34" viewBox="0 0 34 34" fill="none" xmlns="http://www.w3.org/2000/svg">
<rect x="1" y="1" width="32" height="32" rx="16" stroke="white" stroke-width="1.82857"/>
<path d="M24.1157 12.4622C24.1157 12.9966 24.0135 13.4367 23.8092 13.7825C23.6048 14.1283 23.3769 14.4033 23.1254 14.6077C22.7639 14.9063 22.2767 15.1264 21.6637 15.2678C21.0507 15.4093 20.2805 15.48 19.3532 15.48H16.3118V13.7118H20.0605C20.5635 13.7118 20.9407 13.6882 21.1922 13.641C21.4594 13.5782 21.6716 13.4839 21.8287 13.3581C21.9545 13.2481 22.0409 13.1224 22.0881 12.9809C22.1509 12.8394 22.1824 12.6744 22.1824 12.4858C22.1824 12.2815 22.1509 12.1007 22.0881 11.9435C22.0252 11.7864 21.9309 11.6528 21.8052 11.5427C21.648 11.417 21.4515 11.3227 21.2157 11.2598C20.98 11.1969 20.587 11.1655 20.0369 11.1655H11.5022V9.39727H19.8955C20.7599 9.39727 21.4358 9.46014 21.923 9.58588C22.426 9.71162 22.8582 9.93167 23.2197 10.246C23.4869 10.4818 23.6991 10.7804 23.8563 11.1419C24.0292 11.4877 24.1157 11.9278 24.1157 12.4622ZM17.1134 25.7829C15.2116 25.7829 13.632 25.5314 12.3746 25.0285C11.1329 24.5098 10.2055 23.8104 9.59254 22.9302C8.97955 22.0343 8.67306 21.0283 8.67306 19.9124C8.67306 19.0322 8.85381 18.262 9.21532 17.6019C9.59254 16.926 10.1034 16.4073 10.7478 16.0458C11.3922 15.6686 12.1309 15.48 12.964 15.48C13.6241 15.48 14.19 15.6057 14.6615 15.8572C15.133 16.093 15.4945 16.4309 15.746 16.871C15.9975 17.3111 16.1232 17.8219 16.1232 18.4035C16.1232 19.3623 15.7932 20.1324 15.133 20.714C14.4886 21.2798 13.577 21.5627 12.3981 21.5627C12.0524 21.5627 11.7223 21.5313 11.4079 21.4684C11.0936 21.3898 10.8028 21.2955 10.5356 21.1855C10.2684 21.0755 10.0169 20.9497 9.78115 20.8083L9.94619 19.1344C10.2605 19.3701 10.5906 19.5587 10.9364 19.7002C11.2979 19.8416 11.6908 19.9124 12.1152 19.9124C12.8854 19.9124 13.4276 19.7709 13.742 19.488C14.0721 19.2051 14.2371 18.8436 14.2371 18.4035C14.2371 17.9948 14.1114 17.6883 13.8599 17.484C13.6241 17.264 13.2862 17.1539 12.8461 17.1539C12.3746 17.1539 11.9502 17.264 11.573 17.484C11.2115 17.704 10.9207 18.0105 10.7006 18.4035C10.4806 18.7807 10.3706 19.2129 10.3706 19.7002V19.8181C10.3706 20.4939 10.5277 21.0912 10.8421 21.6099C11.1722 22.1128 11.628 22.5372 12.2095 22.883C12.7911 23.2288 13.4827 23.4881 14.2843 23.661C15.1016 23.8339 16.0053 23.9204 16.9956 23.9204C18.3001 23.9204 19.3768 23.7868 20.2255 23.5196C21.09 23.2524 21.7659 22.9066 22.2531 22.4822C22.7404 22.0578 23.0783 21.602 23.2669 21.1148C23.4712 20.6275 23.5734 20.156 23.5734 19.7002V18.6628C23.4319 18.2384 23.1726 17.8848 22.7954 17.6019C22.4181 17.3032 21.9545 17.1539 21.4044 17.1539C21.0114 17.1539 20.6499 17.2718 20.3198 17.5076C20.0055 17.7276 19.8483 18.0891 19.8483 18.5921C19.8483 18.9379 19.974 19.2444 20.2255 19.5116C20.477 19.7788 20.87 19.9124 21.4044 19.9124C21.813 19.9124 22.1667 19.8416 22.4653 19.7002C22.7639 19.543 22.9997 19.3308 23.1726 19.0636C23.3612 18.7807 23.4948 18.4585 23.5734 18.097L23.9506 20.2189C23.7148 20.5018 23.4555 20.7454 23.1726 20.9497C22.9054 21.1541 22.5989 21.3112 22.2531 21.4213C21.923 21.5156 21.538 21.5627 21.0979 21.5627C20.5006 21.5627 19.9662 21.4448 19.4947 21.2091C19.0231 20.9733 18.6538 20.6432 18.3866 20.2189C18.1194 19.7788 17.9858 19.2601 17.9858 18.6628C17.9858 17.7826 18.2608 17.0989 18.8109 16.6117C19.3768 16.1087 20.1234 15.8572 21.0507 15.8572C21.145 15.8572 21.2472 15.8651 21.3572 15.8808C21.4829 15.8965 21.6165 15.9201 21.758 15.9515C21.8995 15.983 22.0331 16.0223 22.1588 16.0694L21.8759 16.093C21.5301 15.9201 21.1214 15.7786 20.6499 15.6686C20.1941 15.5429 19.7383 15.4486 19.2825 15.3857C18.8267 15.3228 18.4259 15.2914 18.0801 15.2914L18.4101 13.8296C19.6204 13.9397 20.6656 14.1676 21.5458 14.5134C22.426 14.8592 23.1412 15.2914 23.6913 15.8101C24.2571 16.3288 24.6736 16.9182 24.9408 17.5783C25.208 18.2384 25.3416 18.9536 25.3416 19.7238C25.3416 20.5882 25.1766 21.3898 24.8465 22.1286C24.5322 22.8673 24.0371 23.5117 23.3612 24.0618C22.7011 24.5962 21.8523 25.0206 20.8149 25.335C19.7776 25.6336 18.5437 25.7829 17.1134 25.7829Z" fill="white"/>
</svg>
