<svg width="1715" height="733" viewBox="0 0 1715 733" fill="none" xmlns="http://www.w3.org/2000/svg">
<path d="M3.67773 382.687C65.1899 427.54 294.785 561.958 375.776 541.454C477.015 515.824 502.004 383.829 658.348 353.073C814.691 322.316 929.386 429.322 1050.49 274.901C1171.59 120.48 1243.13 22.6138 1405.88 44.3994C1490.98 58.2327 1668.08 93.6994 1695.68 124.899C1723.28 156.099 1707.18 77.5661 1695.68 34.3994" stroke="#C6F812" stroke-width="6.40752" stroke-linecap="round" stroke-linejoin="round"/>
<path d="M536.178 687.585C477.096 687.585 449.385 665.364 449.385 623.797V619.614H501.67V624.32C501.67 637.391 502.716 640.528 533.826 640.528C563.628 640.528 571.471 637.914 571.471 627.195C571.471 618.568 566.504 615.693 555.001 615.693H502.977V575.433H551.341C561.014 575.433 564.151 572.034 564.151 565.499C564.151 557.133 559.445 554.257 533.303 554.257C506.376 554.257 501.67 557.394 501.67 570.466V571.25H449.385V570.989C449.385 532.036 478.403 507.201 538.008 507.201C586.634 507.201 613.038 522.625 613.038 554.257C613.038 574.649 600.751 587.72 577.484 590.334V593.733C603.627 596.608 621.404 608.896 621.404 635.561C621.404 670.069 590.032 687.585 536.178 687.585Z" fill="white"/>
<rect x="226.301" y="487.631" width="82.0162" height="82.0162" rx="25.6301" fill="white"/>
<rect x="251.932" y="513.261" width="29.4746" height="29.4746" rx="12.815" fill="#C6F812"/>
<path d="M1153.07 515.812H989.682V484.964C989.682 455.161 1003.54 439.737 1041.18 427.712L1088.76 412.549C1100 408.889 1104.45 405.49 1104.45 397.386C1104.45 388.498 1101.05 382.746 1074.38 382.746C1045.1 382.746 1038.57 390.066 1038.57 406.013V409.412H990.466V405.49C990.466 370.198 1014.52 338.042 1076.21 338.042C1131.64 338.042 1153.6 362.355 1153.6 398.17C1153.6 431.11 1131.64 446.534 1100.27 454.377L1061.05 464.05C1049.55 466.926 1041.44 468.756 1041.44 477.644L1090.59 471.631H1153.07V515.812Z" fill="white"/>
<rect x="768.426" y="318.472" width="82.0162" height="82.0162" rx="25.6301" fill="white"/>
<rect x="794.055" y="344.103" width="29.4746" height="29.4746" rx="12.815" fill="#C6F812"/>
<path d="M1514.86 222H1465.71V101.744H1418.92V68.5425H1425.45C1444.54 68.5425 1459.44 64.6211 1469.11 46.8441H1514.86V222Z" fill="white"/>
<rect x="1212.54" y="24.6592" width="82.0162" height="82.0162" rx="25.6301" fill="white"/>
<rect x="1238.18" y="50.2891" width="29.4746" height="29.4746" rx="12.815" fill="#C6F812"/>
</svg>
