<svg width="499" height="201" viewBox="0 0 499 201" fill="none" xmlns="http://www.w3.org/2000/svg">
<path d="M1 106.999C19.0513 120.161 86.4283 159.607 110.196 153.59C139.905 146.069 147.239 107.334 193.119 98.3081C239 89.2824 272.658 120.684 308.197 75.3679C343.735 30.0515 364.728 1.33175 412.489 7.72493C437.463 11.7845 489.434 22.1925 497.534 31.3485" stroke="#C6F812" stroke-width="1.88035" stroke-linecap="round" stroke-linejoin="round"/>
<path d="M162.952 182H151.672V154.4H140.932V146.78H142.432C146.812 146.78 150.232 145.88 152.452 141.8H162.952V182Z" fill="white"/>
<rect x="66.332" y="137.795" width="24.0685" height="24.0685" rx="7.5214" fill="white"/>
<rect x="73.8516" y="145.317" width="8.6496" height="8.6496" rx="3.7607" fill="#C6F812"/>
<path d="M342.612 135H305.112V127.92C305.112 121.08 308.292 117.54 316.932 114.78L327.852 111.3C330.432 110.46 331.452 109.68 331.452 107.82C331.452 105.78 330.672 104.46 324.552 104.46C317.832 104.46 316.332 106.14 316.332 109.8V110.58H305.292V109.68C305.292 101.58 310.812 94.2 324.972 94.2C337.692 94.2 342.732 99.78 342.732 108C342.732 115.56 337.692 119.1 330.492 120.9L321.492 123.12C318.852 123.78 316.992 124.2 316.992 126.24L328.272 124.86H342.612V135Z" fill="white"/>
<rect x="225.422" y="88.1538" width="24.0685" height="24.0685" rx="7.5214" fill="white"/>
<rect x="232.943" y="95.6758" width="8.6496" height="8.6496" rx="3.7607" fill="#C6F812"/>
<path d="M442.452 58.6C428.892 58.6 422.532 53.5 422.532 43.96V43H434.532V44.08C434.532 47.08 434.772 47.8 441.912 47.8C448.752 47.8 450.552 47.2 450.552 44.74C450.552 42.76 449.412 42.1 446.772 42.1H434.832V32.86H445.932C448.152 32.86 448.872 32.08 448.872 30.58C448.872 28.66 447.792 28 441.792 28C435.612 28 434.532 28.72 434.532 31.72V31.9H422.532V31.84C422.532 22.9 429.192 17.2 442.872 17.2C454.032 17.2 460.092 20.74 460.092 28C460.092 32.68 457.272 35.68 451.932 36.28V37.06C457.932 37.72 462.012 40.54 462.012 46.66C462.012 54.58 454.812 58.6 442.452 58.6Z" fill="white"/>
<rect x="355.754" y="1.93213" width="24.0685" height="24.0685" rx="7.5214" fill="white"/>
<rect x="363.275" y="9.45312" width="8.6496" height="8.6496" rx="3.7607" fill="#C6F812"/>
</svg>
