<svg width="182" height="60" viewBox="0 0 182 60" fill="none" xmlns="http://www.w3.org/2000/svg">
<g clip-path="url(#clip0_7132_28)">
<path d="M37.8092 12.425H31.0996V38.8218H37.8092V12.425Z" fill="#D5D5D5" stroke="#D5D5D5" stroke-width="0.177457" stroke-miterlimit="10"/>
<path d="M34.4532 8.32657C35.6764 8.32657 36.682 7.95475 37.4679 7.20901C38.2538 6.46327 38.6467 5.52528 38.6467 4.38871C38.6467 3.25214 38.2538 2.3226 37.4679 1.59376C36.682 0.867027 35.6764 0.503662 34.4532 0.503662C33.2301 0.503662 32.2245 0.867027 31.4386 1.59376C30.6527 2.32049 30.2598 3.25214 30.2598 4.38871C30.2598 5.52528 30.6527 6.46327 31.4386 7.20901C32.2245 7.95475 33.2301 8.32657 34.4532 8.32657Z" fill="#D5D5D5" stroke="#D5D5D5" stroke-width="0.177457" stroke-miterlimit="10"/>
<path d="M51.1778 38.3421C52.6461 39.0879 54.3573 39.4597 56.3156 39.4597C58.762 39.4597 60.9464 38.8661 62.8689 37.6767C64.7913 36.4894 66.3103 34.8564 67.4299 32.7797C68.5475 30.7051 69.1073 28.3369 69.1073 25.6751C69.1073 23.0132 68.5475 20.6366 67.4299 18.543C66.3103 16.4494 64.7913 14.7995 62.8689 13.5932C60.9464 12.3869 58.762 11.7848 56.3156 11.7848C54.1143 11.7848 52.3228 12.2285 50.9433 13.1158C49.5617 14.003 48.4526 15.0319 47.6139 16.2022L46.8808 12.4228H40.9043V41.6589H7.29942V35.2007C8.20783 36.5486 9.39721 37.5964 10.8633 38.34C12.3316 39.0858 14.0428 39.4576 16.0012 39.4576C18.4475 39.4576 20.6319 38.8639 22.5544 37.6746C24.4768 36.4873 25.9958 34.8543 27.1155 32.7776C28.233 30.703 28.7929 28.3348 28.7929 25.673C28.7929 23.0111 28.233 20.6344 27.1155 18.5409C25.9958 16.4473 24.4768 14.7974 22.5544 13.5911C20.6319 12.3848 18.4475 11.7827 16.0012 11.7827C13.7998 11.7827 12.0084 12.2264 10.6289 13.1136C9.24722 14.0009 8.13811 15.0298 7.29942 16.2001L6.56635 12.4207H0.589844V50.5254H7.29942V47.4601H40.9022V50.5254H47.6118V47.4601H67.8229V41.6547H47.6118V35.1965C48.5202 36.5443 49.7096 37.5922 51.1757 38.3358L51.1778 38.3421ZM9.26623 19.9542C10.6458 18.4817 12.4203 17.7465 14.5878 17.7465C16.7554 17.7465 18.4834 18.4923 19.882 19.9817C21.2784 21.471 21.9798 23.3702 21.9798 25.6751C21.9798 27.9799 21.2805 29.8622 19.882 31.3157C18.4834 32.7713 16.7194 33.498 14.5878 33.498C12.4562 33.498 10.6479 32.7628 9.26623 31.2903C7.8846 29.8179 7.1959 27.9292 7.1959 25.6223C7.1959 23.3153 7.8846 21.4267 9.26623 19.9542ZM49.5807 19.9542C50.9602 18.4817 52.7348 17.7465 54.9023 17.7465C57.0698 17.7465 58.7979 18.4923 60.1964 19.9817C61.5929 21.471 62.2942 23.3702 62.2942 25.6751C62.2942 27.9799 61.595 29.8622 60.1964 31.3157C58.7979 32.7713 57.0339 33.498 54.9023 33.498C52.7707 33.498 50.9623 32.7628 49.5807 31.2903C48.1991 29.8179 47.5104 27.9292 47.5104 25.6223C47.5104 23.3153 48.1991 21.4267 49.5807 19.9542Z" fill="#D5D5D5" stroke="#D5D5D5" stroke-width="0.177457" stroke-miterlimit="10"/>
<path d="M90.5995 13.4899C88.6411 12.3554 86.387 11.7871 83.8371 11.7871C81.1119 11.7871 78.7437 12.3807 76.7346 13.5701C74.7234 14.7595 73.1517 16.4179 72.0172 18.5453C70.8806 20.6748 70.3145 23.1042 70.3145 25.8358C70.3145 28.5674 70.8912 30.9102 72.0447 32.9679C73.1981 35.0255 74.7889 36.6227 76.8149 37.7571C78.8408 38.8916 81.1668 39.4599 83.7864 39.4599C85.8842 39.4599 87.7623 39.069 89.4228 38.2895C91.0812 37.51 92.4797 36.4368 93.6163 35.0699C94.7507 33.7052 95.5641 32.1883 96.0542 30.5194H89.239C88.7848 31.5123 88.094 32.3214 87.1687 32.9404C86.2433 33.5615 85.0983 33.8721 83.7357 33.8721C81.9189 33.8721 80.3725 33.2869 79.0965 32.1165C77.8205 30.9461 77.1128 29.3321 76.9733 27.2745H96.7366C96.7704 26.8139 96.7978 26.3703 96.8147 25.9435C96.8316 25.5168 96.8401 25.1112 96.8401 24.7204C96.8401 22.3078 96.2887 20.117 95.188 18.1481C94.0874 16.1792 92.5579 14.6264 90.6016 13.492L90.5995 13.4899ZM77.0747 23.0155C77.4233 21.0994 78.2282 19.6713 79.4873 18.7312C80.7464 17.7911 82.1956 17.32 83.8392 17.32C85.4828 17.32 86.9849 17.8354 88.1383 18.8643C89.2918 19.8931 89.9214 21.2768 90.0249 23.0155H77.0768H77.0747Z" fill="#D5D5D5" stroke="#D5D5D5" stroke-width="0.177457" stroke-miterlimit="10"/>
<path d="M105.278 0.503662H98.5684V38.8217H105.278V0.503662Z" fill="#D5D5D5" stroke="#D5D5D5" stroke-width="0.177457" stroke-miterlimit="10"/>
<path d="M111.832 0.503662C110.609 0.503662 109.603 0.867027 108.817 1.59376C108.032 2.32049 107.639 3.25214 107.639 4.38871C107.639 5.52528 108.032 6.46327 108.817 7.20901C109.603 7.95475 110.609 8.32657 111.832 8.32657C113.055 8.32657 114.061 7.95475 114.847 7.20901C115.633 6.46327 116.026 5.52528 116.026 4.38871C116.026 3.25214 115.633 2.3226 114.847 1.59376C114.061 0.867027 113.055 0.503662 111.832 0.503662Z" fill="#D5D5D5" stroke="#D5D5D5" stroke-width="0.177457" stroke-miterlimit="10"/>
<path d="M115.184 12.425H108.475V38.8218H115.184V12.425Z" fill="#D5D5D5" stroke="#D5D5D5" stroke-width="0.177457" stroke-miterlimit="10"/>
<path d="M133.587 11.7871C131.525 11.7871 129.734 12.2477 128.213 13.1709C126.692 14.0941 125.53 15.3363 124.727 16.8953L124.203 12.4251H118.279V38.8219H124.989V25.1978C124.989 22.7852 125.591 20.905 126.797 19.5572C128.004 18.2094 129.55 17.5355 131.436 17.5355C133.323 17.5355 134.774 18.1397 135.683 19.3438C136.591 20.5501 137.045 22.2888 137.045 24.5598V38.8219H143.755V23.9197C143.755 19.9459 142.863 16.9313 141.08 14.8736C139.297 12.8159 136.798 11.7871 133.583 11.7871H133.587Z" fill="#D5D5D5" stroke="#D5D5D5" stroke-width="0.177457" stroke-miterlimit="10"/>
<path d="M170.256 18.146C169.156 16.1771 167.626 14.6243 165.67 13.4899C163.711 12.3554 161.457 11.7871 158.907 11.7871C156.182 11.7871 153.814 12.3807 151.805 13.5701C149.794 14.7595 148.222 16.4179 147.088 18.5453C145.951 20.6748 145.385 23.1042 145.385 25.8358C145.385 28.5674 145.962 30.9102 147.115 32.9679C148.268 35.0255 149.859 36.6227 151.885 37.7571C153.911 38.8916 156.237 39.4599 158.857 39.4599C160.955 39.4599 162.833 39.069 164.493 38.2895C166.151 37.51 167.55 36.4368 168.687 35.0699C169.821 33.7052 170.634 32.1883 171.125 30.5194H164.309C163.855 31.5123 163.164 32.3214 162.239 32.9404C161.314 33.5615 160.169 33.8721 158.806 33.8721C156.989 33.8721 155.443 33.2869 154.167 32.1165C152.891 30.9461 152.183 29.3321 152.044 27.2745H171.807C171.841 26.8139 171.868 26.3703 171.885 25.9435C171.902 25.5168 171.91 25.1112 171.91 24.7204C171.91 22.3078 171.359 20.117 170.258 18.1481L170.256 18.146ZM152.143 23.0155C152.492 21.0994 153.296 19.6713 154.555 18.7312C155.815 17.7911 157.264 17.32 158.907 17.32C160.551 17.32 162.053 17.8354 163.207 18.8643C164.36 19.8931 164.99 21.2768 165.093 23.0155H152.145H152.143Z" fill="#D5D5D5" stroke="#D5D5D5" stroke-width="0.177457" stroke-miterlimit="10"/>
<path d="M73.1476 42.7639V43.6808H71.9012V47.4644H70.7562V43.6808H69.5098V42.7639H73.1455H73.1476Z" fill="#D5D5D5"/>
<path d="M79.6725 42.7639V47.4644H78.5275V45.5293H76.7466V47.4644H75.6016V42.7639H76.7466V44.6061H78.5275V42.7639H79.6725Z" fill="#D5D5D5"/>
<path d="M83.5142 43.6808V44.6315H85.0479V45.5145H83.5142V46.5455H85.2486V47.4623H82.3691V42.7618H85.2486V43.6787H83.5142V43.6808Z" fill="#D5D5D5"/>
<path d="M97.6319 42.7639L96.4066 47.4644H95.0208L94.2708 44.3695L93.4934 47.4644H92.1075L90.916 42.7639H92.1413L92.8173 46.1863L93.6539 42.7639H94.913L95.7158 46.1863L96.3982 42.7639H97.6298H97.6319Z" fill="#D5D5D5"/>
<path d="M101.229 42.7639V47.4644H100.084V42.7639H101.229Z" fill="#D5D5D5"/>
<path d="M108.138 47.4644H106.993L105.077 44.5638V47.4644H103.932V42.7639H105.077L106.993 45.6772V42.7639H108.138V47.4644Z" fill="#D5D5D5"/>
<path d="M115.052 47.4644H113.907L111.991 44.5638V47.4644H110.846V42.7639H111.991L113.907 45.6772V42.7639H115.052V47.4644Z" fill="#D5D5D5"/>
<path d="M118.903 43.6808V44.6315H120.437V45.5145H118.903V46.5455H120.637V47.4623H117.758V42.7618H120.637V43.6787H118.903V43.6808Z" fill="#D5D5D5"/>
<path d="M125.652 47.4644L124.674 45.6898H124.399V47.4644H123.254V42.7639H125.176C125.546 42.7639 125.863 42.8294 126.125 42.9583C126.387 43.0871 126.581 43.2646 126.71 43.4906C126.839 43.7167 126.904 43.9681 126.904 44.2448C126.904 44.5575 126.816 44.8364 126.64 45.0814C126.465 45.3265 126.203 45.5018 125.861 45.6032L126.947 47.4644H125.654H125.652ZM124.399 44.8786H125.109C125.318 44.8786 125.476 44.8279 125.582 44.7244C125.688 44.6209 125.74 44.4772 125.74 44.2892C125.74 44.1012 125.688 43.9702 125.582 43.8667C125.476 43.7632 125.32 43.7125 125.109 43.7125H124.399V44.8786Z" fill="#D5D5D5"/>
<path d="M130.272 47.344C129.999 47.232 129.782 47.0672 129.619 46.8475C129.456 46.6278 129.37 46.3659 129.361 46.0574H130.58C130.597 46.2306 130.658 46.3637 130.762 46.4567C130.865 46.5475 130.999 46.594 131.163 46.594C131.328 46.594 131.468 46.556 131.565 46.4778C131.662 46.3997 131.713 46.2919 131.713 46.1525C131.713 46.0363 131.673 45.9412 131.596 45.8652C131.518 45.7891 131.423 45.7257 131.309 45.6771C131.195 45.6286 131.035 45.5715 130.823 45.5103C130.519 45.4173 130.272 45.3222 130.08 45.2293C129.887 45.1363 129.723 44.9969 129.583 44.8131C129.444 44.6293 129.376 44.3906 129.376 44.0969C129.376 43.6596 129.535 43.3174 129.851 43.0681C130.168 42.8209 130.58 42.6963 131.089 42.6963C131.599 42.6963 132.025 42.8209 132.342 43.0681C132.659 43.3153 132.828 43.6617 132.851 44.1033H131.613C131.605 43.9512 131.548 43.8329 131.446 43.7441C131.343 43.6575 131.212 43.6132 131.051 43.6132C130.912 43.6132 130.802 43.6491 130.718 43.723C130.633 43.7969 130.591 43.9026 130.591 44.042C130.591 44.1941 130.663 44.3124 130.804 44.3969C130.948 44.4814 131.17 44.5744 131.474 44.6716C131.778 44.7751 132.023 44.8723 132.213 44.9652C132.403 45.0582 132.566 45.1955 132.706 45.3729C132.845 45.5525 132.913 45.7807 132.913 46.0638C132.913 46.3468 132.845 46.575 132.708 46.7947C132.572 47.0123 132.374 47.1876 132.114 47.3165C131.854 47.4454 131.55 47.5109 131.197 47.5109C130.844 47.5109 130.544 47.4559 130.274 47.344H130.272Z" fill="#D5D5D5"/>
<path d="M139.928 46.5814H141.428V47.4644H138.783V42.7639H139.928V46.5814Z" fill="#D5D5D5"/>
<path d="M144.999 42.7639V47.4644H143.854V42.7639H144.999Z" fill="#D5D5D5"/>
<path d="M151.909 47.4644H150.764L148.848 44.5638V47.4644H147.703V42.7639H148.848L150.764 45.6772V42.7639H151.909V47.4644Z" fill="#D5D5D5"/>
<path d="M155.76 43.6808V44.6315H157.294V45.5145H155.76V46.5455H157.495V47.4623H154.615V42.7618H157.495V43.6787H155.76V43.6808Z" fill="#D5D5D5"/>
<path d="M161.239 42.7639V45.5758C161.239 45.8567 161.309 46.0743 161.446 46.2264C161.583 46.3785 161.788 46.4546 162.054 46.4546C162.321 46.4546 162.528 46.3785 162.671 46.2264C162.815 46.0743 162.887 45.8589 162.887 45.5758V42.7639H164.032V45.5694C164.032 45.9898 163.943 46.3447 163.763 46.6342C163.584 46.9236 163.345 47.1433 163.043 47.2912C162.741 47.4391 162.405 47.513 162.035 47.513C161.666 47.513 161.334 47.4412 161.04 47.2954C160.749 47.1496 160.516 46.932 160.347 46.6384C160.178 46.3469 160.092 45.9898 160.092 45.5694V42.7639H161.237H161.239Z" fill="#D5D5D5"/>
<path d="M170.104 45.0244C169.979 45.2504 169.787 45.4321 169.527 45.5694C169.267 45.7089 168.946 45.7765 168.562 45.7765H167.852V47.4644H166.707V42.7639H168.562C168.938 42.7639 169.255 42.8294 169.513 42.9583C169.77 43.0871 169.965 43.2667 170.096 43.4949C170.224 43.723 170.29 43.9829 170.29 44.2786C170.29 44.5512 170.227 44.8004 170.102 45.0265L170.104 45.0244ZM168.965 44.7138C169.073 44.6103 169.126 44.4667 169.126 44.2786C169.126 44.0906 169.073 43.947 168.965 43.8434C168.858 43.7399 168.695 43.6892 168.477 43.6892H167.854V44.868H168.477C168.695 44.868 168.86 44.8173 168.965 44.7138Z" fill="#D5D5D5"/>
<path d="M177.338 39.1578C179.636 39.1578 181.499 37.2945 181.499 34.996C181.499 32.6975 179.636 30.8342 177.338 30.8342C175.039 30.8342 173.176 32.6975 173.176 34.996C173.176 37.2945 175.039 39.1578 177.338 39.1578Z" fill="#D5D5D5"/>
</g>
<defs>
<clipPath id="clip0_7132_28">
<rect width="181" height="50.2035" fill="white" transform="translate(0.5 0.415039)"/>
</clipPath>
</defs>
</svg>
