<svg width="50" height="50" viewBox="0 0 50 50" fill="none" xmlns="http://www.w3.org/2000/svg">
<path d="M23.9888 4.3613C24.6392 4.10222 25.3621 4.10222 26.0125 4.3613C28.1092 5.19628 28.5188 8.41166 30.9927 8.59066C32.7348 8.7167 34.4444 7.26443 36.1925 7.69978C36.8975 7.87539 37.5065 8.32489 37.8882 8.95151C39.0573 10.8717 37.5484 13.6939 39.4554 15.2872C40.7804 16.3936 42.9696 16.2504 44.1215 17.6068C44.6065 18.1781 44.8448 18.9233 44.7825 19.6747C44.5982 21.9099 41.7484 23.3078 42.3746 25.7168C42.8079 27.3843 44.6367 28.5566 44.7825 30.326C44.8448 31.0774 44.6065 31.8226 44.1215 32.3939C42.674 34.098 39.544 33.5368 38.6415 35.8466C38.0077 37.4678 38.8215 39.5164 37.8882 41.0491C37.5065 41.6757 36.8975 42.1253 36.1925 42.301C34.0219 42.8414 31.8188 40.5097 29.73 41.8249C28.2388 42.7637 27.7044 44.966 26.0125 45.6393C25.3621 45.8985 24.6392 45.8985 23.9888 45.6393C22.2969 44.966 21.7625 42.7637 20.2713 41.8249C18.2084 40.5262 15.9426 42.8322 13.8088 42.301C13.1037 42.1253 12.4948 41.6757 12.1133 41.0491C10.9441 39.1291 12.4528 36.3066 10.5459 34.7135C9.22111 33.607 7.03178 33.7503 5.8799 32.3939C5.39484 31.8226 5.15657 31.0774 5.21867 30.326C5.36492 28.5566 7.19315 27.3843 7.6267 25.7168C8.24665 23.333 5.40074 21.8772 5.21867 19.6747C5.15657 18.9233 5.39484 18.1781 5.8799 17.6068C7.32724 15.9021 10.4569 16.4639 11.3598 14.1541C11.9936 12.5328 11.18 10.4842 12.1133 8.95151C12.4948 8.32489 13.1037 7.87539 13.8088 7.69978C15.557 7.26443 17.2664 8.71672 19.0085 8.59066C21.4825 8.4117 21.8921 5.19628 23.9888 4.3613Z" stroke="#C6F812" stroke-width="2.83019" stroke-linejoin="round"/>
<path d="M18.75 27.7774C18.75 27.7774 20.5729 27.7774 22.3958 31.2497C22.3958 31.2497 28.1862 22.569 33.3333 20.833" stroke="#C6F812" stroke-width="2.83019" stroke-linecap="round" stroke-linejoin="round"/>
</svg>
