<svg width="41" height="41" viewBox="0 0 41 41" fill="none" xmlns="http://www.w3.org/2000/svg">
<path d="M35.6491 16.38C33.4744 10.0878 27.3988 5.64819 20.2438 5.64819C11.2628 5.64819 3.98242 12.7832 3.98242 21.5847C3.98242 26.4865 6.24069 30.8715 9.79326 33.7949C12.0422 35.6455 14.3841 35.6234 17.2054 35.6234C19.1681 35.6234 21.8588 35.9752 23.0494 34.0315C25.1408 30.6179 21.0998 25.8652 23.7423 22.3565C24.5219 21.3214 25.8153 20.747 28.4018 19.5984L35.6491 16.38ZM35.6491 16.38L37.3158 15.6399" stroke="#141B34" stroke-width="1.5" stroke-linecap="round" stroke-linejoin="round"/>
<path d="M17.3215 28.9816H17.3125" stroke="#141B34" stroke-width="2" stroke-linecap="round" stroke-linejoin="round"/>
<path d="M37.3151 27.1672L30.0393 28.0944C27.0074 28.4807 24.1158 26.7547 23.1484 23.9816" stroke="#141B34" stroke-width="1.5" stroke-linecap="round" stroke-linejoin="round"/>
<path d="M27.3145 20.6482L28.3221 29.7177C28.6356 32.5387 28.7923 33.949 29.7415 34.7987C30.6908 35.6482 32.1098 35.6482 34.9481 35.6482H37.3145" stroke="#141B34" stroke-width="1.5" stroke-linecap="round" stroke-linejoin="round"/>
<path d="M34.8145 27.3148V35.6482" stroke="#141B34" stroke-width="1.5" stroke-linejoin="round"/>
</svg>
