<svg width="56" height="56" viewBox="0 0 56 56" fill="none" xmlns="http://www.w3.org/2000/svg">
<path d="M48.6257 21.8957C45.6355 13.2439 37.2815 7.1394 27.4433 7.1394C15.0946 7.1394 5.08398 16.95 5.08398 29.0521C5.08398 35.7921 8.1891 41.8215 13.0739 45.8411C16.1662 48.3857 19.3863 48.3552 23.2656 48.3552C25.9643 48.3552 29.6639 48.839 31.3011 46.1665C34.1767 41.4727 28.6203 34.9378 32.2538 30.1134C33.3258 28.69 35.1041 27.9003 38.6606 26.3209L48.6257 21.8957ZM48.6257 21.8957L50.9173 20.878" stroke="#C6F812" stroke-width="2.0625" stroke-linecap="round" stroke-linejoin="round"/>
<path d="M23.4259 39.2227H23.4141" stroke="#C6F812" stroke-width="2.75" stroke-linecap="round" stroke-linejoin="round"/>
<path d="M50.9167 36.7279L40.9124 38.0028C36.7436 38.534 32.7676 36.1608 31.4375 32.3477" stroke="#C6F812" stroke-width="2.0625" stroke-linecap="round" stroke-linejoin="round"/>
<path d="M37.166 27.7644L38.5516 40.235C38.9826 44.1138 39.198 46.053 40.5031 47.2213C41.8085 48.3894 43.7596 48.3894 47.6623 48.3894H50.916" stroke="#C6F812" stroke-width="2.0625" stroke-linecap="round" stroke-linejoin="round"/>
<path d="M47.4785 36.9312V48.3895" stroke="#C6F812" stroke-width="2.0625" stroke-linejoin="round"/>
</svg>
