<svg width="420" height="122" viewBox="0 0 420 122" fill="none" xmlns="http://www.w3.org/2000/svg">
<rect width="420" height="121.474" rx="35.7278" fill="black" fill-opacity="0.01"/>
<g clip-path="url(#clip0_7308_863)">
<path d="M137.168 42.5011H127.949V78.7684H137.168V42.5011Z" fill="white" stroke="white" stroke-width="0.243814" stroke-miterlimit="10"/>
<path d="M132.558 36.8701C134.239 36.8701 135.621 36.3592 136.7 35.3346C137.78 34.31 138.32 33.0213 138.32 31.4597C138.32 29.8982 137.78 28.621 136.7 27.6197C135.621 26.6212 134.239 26.1219 132.558 26.1219C130.878 26.1219 129.496 26.6212 128.416 27.6197C127.337 28.6181 126.797 29.8982 126.797 31.4597C126.797 33.0213 127.337 34.31 128.416 35.3346C129.496 36.3592 130.878 36.8701 132.558 36.8701Z" fill="white" stroke="white" stroke-width="0.243814" stroke-miterlimit="10"/>
<path d="M155.536 78.1094C157.553 79.134 159.904 79.6449 162.595 79.6449C165.956 79.6449 168.957 78.8293 171.598 77.1951C174.24 75.5639 176.327 73.3202 177.865 70.467C179.4 67.6167 180.17 64.363 180.17 60.7057C180.17 57.0485 179.4 53.7832 177.865 50.9067C176.327 48.0303 174.24 45.7634 171.598 44.1061C168.957 42.4487 165.956 41.6215 162.595 41.6215C159.57 41.6215 157.109 42.231 155.213 43.4501C153.315 44.6692 151.791 46.0827 150.639 47.6907L149.632 42.4981H141.421V82.6664H95.2497V73.7933C96.4978 75.6452 98.132 77.0848 100.146 78.1065C102.164 79.1311 104.515 79.642 107.205 79.642C110.566 79.642 113.568 78.8264 116.209 77.1922C118.85 75.561 120.937 73.3173 122.476 70.4641C124.011 67.6138 124.78 64.3601 124.78 60.7028C124.78 57.0456 124.011 53.7803 122.476 50.9038C120.937 48.0274 118.85 45.7605 116.209 44.1032C113.568 42.4458 110.566 41.6186 107.205 41.6186C104.181 41.6186 101.72 42.2281 99.8242 43.4472C97.9259 44.6663 96.4021 46.0798 95.2497 47.6878L94.2426 42.4952H86.0312V94.8484H95.2497V90.6368H141.418V94.8484H150.636V90.6368H178.405V82.6606H150.636V73.7875C151.884 75.6394 153.518 77.079 155.533 78.1007L155.536 78.1094ZM97.952 52.8456C99.8474 50.8226 102.286 49.8125 105.264 49.8125C108.242 49.8125 110.616 50.8371 112.537 52.8834C114.456 54.9297 115.42 57.5391 115.42 60.7057C115.42 63.8724 114.459 66.4586 112.537 68.4556C110.616 70.4554 108.192 71.4539 105.264 71.4539C102.335 71.4539 99.8503 70.4438 97.952 68.4207C96.0538 66.3976 95.1075 63.8028 95.1075 60.6332C95.1075 57.4636 96.0538 54.8687 97.952 52.8456ZM153.341 52.8456C155.237 50.8226 157.675 49.8125 160.653 49.8125C163.631 49.8125 166.005 50.8371 167.927 52.8834C169.845 54.9297 170.809 57.5391 170.809 60.7057C170.809 63.8724 169.848 66.4586 167.927 68.4556C166.005 70.4554 163.582 71.4539 160.653 71.4539C157.724 71.4539 155.24 70.4438 153.341 68.4207C151.443 66.3976 150.497 63.8028 150.497 60.6332C150.497 57.4636 151.443 54.8687 153.341 52.8456Z" fill="white" stroke="white" stroke-width="0.243814" stroke-miterlimit="10"/>
<path d="M209.698 43.9639C207.008 42.4052 203.911 41.6245 200.407 41.6245C196.663 41.6245 193.409 42.4401 190.649 44.0742C187.886 45.7083 185.726 47.9868 184.168 50.9097C182.606 53.8355 181.828 57.1734 181.828 60.9264C181.828 64.6794 182.621 67.8983 184.205 70.7254C185.79 73.5525 187.976 75.7468 190.759 77.3055C193.543 78.8641 196.739 79.6449 200.338 79.6449C203.22 79.6449 205.8 79.108 208.082 78.0369C210.36 76.9659 212.282 75.4914 213.843 73.6134C215.402 71.7384 216.519 69.6544 217.193 67.3613H207.829C207.205 68.7255 206.256 69.8372 204.985 70.6877C203.713 71.541 202.14 71.9677 200.268 71.9677C197.772 71.9677 195.647 71.1637 193.894 69.5557C192.141 67.9477 191.169 65.7301 190.977 62.903H218.13C218.177 62.2703 218.214 61.6607 218.238 61.0744C218.261 60.4881 218.273 59.9308 218.273 59.3939C218.273 56.0791 217.515 53.0692 216.003 50.364C214.49 47.6588 212.389 45.5255 209.701 43.9668L209.698 43.9639ZM191.116 57.0515C191.595 54.4189 192.701 52.4568 194.431 51.1651C196.161 49.8735 198.152 49.2262 200.41 49.2262C202.668 49.2262 204.732 49.9344 206.317 51.348C207.902 52.7615 208.767 54.6627 208.909 57.0515H191.119H191.116Z" fill="white" stroke="white" stroke-width="0.243814" stroke-miterlimit="10"/>
<path d="M229.865 26.1219H220.646V78.7684H229.865V26.1219Z" fill="white" stroke="white" stroke-width="0.243814" stroke-miterlimit="10"/>
<path d="M238.871 26.1219C237.19 26.1219 235.809 26.6212 234.729 27.6197C233.649 28.6181 233.109 29.8982 233.109 31.4597C233.109 33.0213 233.649 34.31 234.729 35.3346C235.809 36.3592 237.19 36.8701 238.871 36.8701C240.552 36.8701 241.933 36.3592 243.013 35.3346C244.093 34.31 244.632 33.0213 244.632 31.4597C244.632 29.8982 244.093 28.621 243.013 27.6197C241.933 26.6212 240.552 26.1219 238.871 26.1219Z" fill="white" stroke="white" stroke-width="0.243814" stroke-miterlimit="10"/>
<path d="M243.476 42.5011H234.258V78.7684H243.476V42.5011Z" fill="white" stroke="white" stroke-width="0.243814" stroke-miterlimit="10"/>
<path d="M268.76 41.6245C265.927 41.6245 263.466 42.2572 261.376 43.5256C259.286 44.794 257.69 46.5007 256.587 48.6428L255.867 42.501H247.729V78.7684H256.947V60.0498C256.947 56.7351 257.774 54.1518 259.432 52.3C261.089 50.4482 263.214 49.5223 265.806 49.5223C268.398 49.5223 270.392 50.3524 271.64 52.0069C272.888 53.6642 273.512 56.053 273.512 59.1733V78.7684H282.73V58.2938C282.73 52.8341 281.505 48.6922 279.056 45.8651C276.606 43.038 273.172 41.6245 268.755 41.6245H268.76Z" fill="white" stroke="white" stroke-width="0.243814" stroke-miterlimit="10"/>
<path d="M319.142 50.3611C317.63 47.6559 315.529 45.5226 312.841 43.9639C310.15 42.4052 307.053 41.6245 303.55 41.6245C299.806 41.6245 296.552 42.4401 293.792 44.0742C291.028 45.7083 288.869 47.9868 287.31 50.9097C285.749 53.8355 284.971 57.1734 284.971 60.9264C284.971 64.6794 285.763 67.8983 287.348 70.7254C288.933 73.5525 291.118 75.7468 293.902 77.3055C296.685 78.8641 299.881 79.6449 303.48 79.6449C306.362 79.6449 308.943 79.108 311.224 78.0369C313.503 76.9659 315.424 75.4914 316.986 73.6134C318.544 71.7384 319.662 69.6544 320.335 67.3613H310.972C310.348 68.7255 309.399 69.8372 308.127 70.6877C306.856 71.541 305.283 71.9677 303.411 71.9677C300.914 71.9677 298.79 71.1637 297.037 69.5557C295.283 67.9477 294.311 65.7301 294.12 62.903H321.273C321.319 62.2703 321.357 61.6607 321.38 61.0744C321.403 60.4881 321.415 59.9308 321.415 59.3939C321.415 56.0791 320.658 53.0692 319.145 50.364L319.142 50.3611ZM294.256 57.0515C294.735 54.4189 295.841 52.4568 297.571 51.1651C299.301 49.8735 301.292 49.2262 303.55 49.2262C305.808 49.2262 307.872 49.9344 309.457 51.348C311.041 52.7615 311.906 54.6627 312.049 57.0515H294.259H294.256Z" fill="white" stroke="white" stroke-width="0.243814" stroke-miterlimit="10"/>
<path d="M185.721 84.1844V85.4442H184.008V90.6426H182.435V85.4442H180.723V84.1844H185.718H185.721Z" fill="white"/>
<path d="M194.685 84.1844V90.6426H193.112V87.9839H190.665V90.6426H189.092V84.1844H190.665V86.7155H193.112V84.1844H194.685Z" fill="white"/>
<path d="M199.964 85.4443V86.7504H202.071V87.9637H199.964V89.3801H202.347V90.6398H198.391V84.1816H202.347V85.4413H199.964V85.4443Z" fill="white"/>
<path d="M219.36 84.1844L217.677 90.6426H215.772L214.742 86.3904L213.674 90.6426H211.77L210.133 84.1844H211.816L212.745 88.8866L213.895 84.1844H215.624L216.727 88.8866L217.665 84.1844H219.357H219.36Z" fill="white"/>
<path d="M224.304 84.1844V90.6426H222.73V84.1844H224.304Z" fill="white"/>
<path d="M233.795 90.6426H232.221L229.589 86.6574V90.6426H228.016V84.1844H229.589L232.221 88.1871V84.1844H233.795V90.6426Z" fill="white"/>
<path d="M243.295 90.6427H241.721L239.089 86.6575V90.6427H237.516V84.1845H239.089L241.721 88.1871V84.1845H243.295V90.6427Z" fill="white"/>
<path d="M248.585 85.4443V86.7504H250.692V87.9637H248.585V89.3801H250.968V90.6398H247.012V84.1816H250.968V85.4413H248.585V85.4443Z" fill="white"/>
<path d="M257.859 90.6426L256.515 88.2045H256.138V90.6426H254.564V84.1844H257.206C257.714 84.1844 258.149 84.2744 258.509 84.4515C258.869 84.6285 259.136 84.8723 259.313 85.1829C259.49 85.4935 259.58 85.8389 259.58 86.2191C259.58 86.6487 259.458 87.0318 259.217 87.3685C258.976 87.7052 258.616 87.9461 258.146 88.0855L259.638 90.6426H257.862H257.859ZM256.138 87.0899H257.113C257.4 87.0899 257.618 87.0202 257.763 86.878C257.908 86.7358 257.981 86.5384 257.981 86.2801C257.981 86.0218 257.908 85.8418 257.763 85.6996C257.618 85.5573 257.403 85.4877 257.113 85.4877H256.138V87.0899Z" fill="white"/>
<path d="M264.206 90.4772C263.832 90.3233 263.533 90.0969 263.309 89.7951C263.086 89.4932 262.967 89.1333 262.955 88.7095H264.63C264.653 88.9475 264.737 89.1304 264.879 89.2581C265.022 89.3829 265.205 89.4468 265.431 89.4468C265.657 89.4468 265.849 89.3945 265.982 89.2871C266.116 89.1797 266.186 89.0317 266.186 88.8401C266.186 88.6805 266.13 88.5499 266.026 88.4454C265.919 88.3409 265.788 88.2538 265.631 88.187C265.474 88.1203 265.254 88.0419 264.964 87.9577C264.546 87.83 264.206 87.6994 263.942 87.5717C263.678 87.444 263.451 87.2524 263.26 86.9999C263.068 86.7474 262.975 86.4194 262.975 86.0159C262.975 85.4151 263.193 84.9449 263.628 84.6024C264.064 84.2628 264.63 84.0916 265.329 84.0916C266.029 84.0916 266.615 84.2628 267.051 84.6024C267.486 84.942 267.718 85.418 267.75 86.0247H266.049C266.038 85.8157 265.959 85.6531 265.82 85.5312C265.678 85.4122 265.498 85.3513 265.277 85.3513C265.086 85.3513 264.935 85.4006 264.819 85.5022C264.702 85.6038 264.644 85.7489 264.644 85.9405C264.644 86.1495 264.743 86.312 264.938 86.4281C265.135 86.5442 265.44 86.6719 265.858 86.8054C266.276 86.9477 266.612 87.0812 266.874 87.2089C267.135 87.3366 267.358 87.5253 267.55 87.7691C267.741 88.0158 267.834 88.3293 267.834 88.7182C267.834 89.1072 267.741 89.4206 267.553 89.7225C267.367 90.0215 267.094 90.2624 266.737 90.4394C266.38 90.6165 265.962 90.7065 265.477 90.7065C264.993 90.7065 264.581 90.631 264.209 90.4772H264.206Z" fill="white"/>
<path d="M277.474 89.4294H279.534V90.6426H275.9V84.1844H277.474V89.4294Z" fill="white"/>
<path d="M284.438 84.1844V90.6426H282.865V84.1844H284.438Z" fill="white"/>
<path d="M293.933 90.6426H292.36L289.727 86.6574V90.6426H288.154V84.1844H289.727L292.36 88.1871V84.1844H293.933V90.6426Z" fill="white"/>
<path d="M299.226 85.4443V86.7504H301.333V87.9637H299.226V89.3801H301.609V90.6398H297.652V84.1816H301.609V85.4413H299.226V85.4443Z" fill="white"/>
<path d="M306.752 84.1844V88.0477C306.752 88.4338 306.848 88.7327 307.036 88.9417C307.225 89.1507 307.507 89.2552 307.872 89.2552C308.238 89.2552 308.522 89.1507 308.72 88.9417C308.917 88.7327 309.016 88.4367 309.016 88.0477V84.1844H310.589V88.039C310.589 88.6166 310.467 89.1043 310.22 89.5019C309.974 89.8996 309.646 90.2014 309.231 90.4046C308.816 90.6078 308.354 90.7094 307.846 90.7094C307.338 90.7094 306.882 90.6107 306.479 90.4104C306.078 90.2101 305.759 89.9112 305.527 89.5077C305.295 89.1072 305.176 88.6166 305.176 88.039V84.1844H306.749H306.752Z" fill="white"/>
<path d="M318.933 87.2902C318.762 87.6007 318.498 87.8504 318.141 88.039C317.784 88.2306 317.342 88.3235 316.814 88.3235H315.839V90.6426H314.266V84.1844H316.814C317.331 84.1844 317.766 84.2744 318.12 84.4515C318.474 84.6285 318.741 84.8753 318.921 85.1887C319.098 85.5022 319.188 85.8592 319.188 86.2656C319.188 86.64 319.101 86.9825 318.93 87.2931L318.933 87.2902ZM317.368 86.8635C317.516 86.7213 317.589 86.5239 317.589 86.2656C317.589 86.0072 317.516 85.8099 317.368 85.6677C317.22 85.5254 316.997 85.4558 316.698 85.4558H315.842V87.0754H316.698C316.997 87.0754 317.223 87.0057 317.368 86.8635Z" fill="white"/>
<path d="M328.87 79.2297C332.028 79.2297 334.588 76.6697 334.588 73.5117C334.588 70.3537 332.028 67.7937 328.87 67.7937C325.712 67.7937 323.152 70.3537 323.152 73.5117C323.152 76.6697 325.712 79.2297 328.87 79.2297Z" fill="white"/>
</g>
<defs>
<clipPath id="clip0_7308_863">
<rect width="248.682" height="68.9762" fill="white" transform="translate(85.9082 26)"/>
</clipPath>
</defs>
</svg>
