<svg width="1171" height="326" viewBox="0 0 1171 326" fill="none" xmlns="http://www.w3.org/2000/svg">
<g clip-path="url(#clip0_6943_7191)">
<path d="M241.375 78.3423H197.967V249.119H241.375V78.3423Z" fill="#D5D5D5" stroke="#D5D5D5" stroke-width="1.14808" stroke-miterlimit="10"/>
<path d="M219.663 51.8226C227.577 51.8226 234.083 49.4171 239.167 44.5924C244.251 39.7678 246.794 33.6993 246.794 26.3462C246.794 18.993 244.251 12.9792 239.167 8.26391C234.083 3.56225 227.577 1.21143 219.663 1.21143C211.75 1.21143 205.244 3.56225 200.16 8.26391C195.075 12.9656 192.533 18.993 192.533 26.3462C192.533 33.6993 195.075 39.7678 200.16 44.5924C205.244 49.4171 211.75 51.8226 219.663 51.8226Z" fill="#D5D5D5" stroke="#D5D5D5" stroke-width="1.14808" stroke-miterlimit="10"/>
<path d="M327.867 246.013C337.366 250.838 348.436 253.243 361.106 253.243C376.933 253.243 391.066 249.403 403.503 241.708C415.941 234.027 425.768 223.462 433.012 210.026C440.242 196.605 443.864 181.283 443.864 164.062C443.864 146.841 440.242 131.465 433.012 117.92C425.768 104.376 415.941 93.7014 403.503 85.8972C391.066 78.093 376.933 74.1977 361.106 74.1977C346.865 74.1977 335.275 77.0679 326.35 82.8083C317.411 88.5487 310.235 95.2049 304.809 102.777L300.067 78.3254H261.401V267.471H43.9904V225.69C49.8674 234.41 57.5623 241.189 67.0476 246C76.5466 250.824 87.6174 253.23 100.287 253.23C116.114 253.23 130.247 249.389 142.684 241.694C155.122 234.013 164.949 223.448 172.193 210.013C179.423 196.591 183.045 181.27 183.045 164.049C183.045 146.827 179.423 131.451 172.193 117.907C164.949 104.362 155.122 93.6878 142.684 85.8836C130.247 78.0793 116.114 74.1841 100.287 74.1841C86.0456 74.1841 74.4555 77.0543 65.5305 82.7947C56.5919 88.5351 49.4164 95.1912 43.9904 102.763L39.2477 78.3117H0.582031V324.834H43.9904V305.003H261.387V324.834H304.796V305.003H435.554V267.444H304.796V225.662C310.673 234.382 318.368 241.161 327.853 245.972L327.867 246.013ZM56.7149 127.05C65.6399 117.524 77.1207 112.768 91.1436 112.768C105.167 112.768 116.347 117.592 125.395 127.228C134.429 136.864 138.967 149.151 138.967 164.062C138.967 178.974 134.443 191.152 125.395 200.555C116.347 209.972 104.934 214.673 91.1436 214.673C77.353 214.673 65.6535 209.917 56.7149 200.391C47.7763 190.864 43.3207 178.646 43.3207 163.721C43.3207 148.796 47.7763 136.577 56.7149 127.05ZM317.534 127.05C326.459 117.524 337.94 112.768 351.963 112.768C365.986 112.768 377.166 117.592 386.214 127.228C395.248 136.864 399.786 149.151 399.786 164.062C399.786 178.974 395.262 191.152 386.214 200.555C377.166 209.972 365.753 214.673 351.963 214.673C338.172 214.673 326.473 209.917 317.534 200.391C308.595 190.864 304.14 178.646 304.14 163.721C304.14 148.796 308.595 136.577 317.534 127.05Z" fill="#D5D5D5" stroke="#D5D5D5" stroke-width="1.14808" stroke-miterlimit="10"/>
<path d="M582.91 85.2256C570.24 77.8861 555.657 74.2095 539.16 74.2095C521.529 74.2095 506.208 78.0501 493.21 85.7449C480.198 93.4398 470.029 104.169 462.69 117.932C455.337 131.709 451.674 147.427 451.674 165.099C451.674 182.771 455.405 197.929 462.868 211.241C470.33 224.553 480.622 234.886 493.729 242.225C506.836 249.565 521.884 253.242 538.832 253.242C552.404 253.242 564.555 250.713 575.297 245.67C586.026 240.626 595.074 233.683 602.428 224.84C609.767 216.011 615.029 206.198 618.2 195.4H574.108C571.17 201.824 566.7 207.059 560.714 211.063C554.728 215.082 547.32 217.091 538.504 217.091C526.75 217.091 516.745 213.305 508.49 205.733C500.235 198.161 495.656 187.719 494.754 174.407H622.615C622.833 171.427 623.011 168.557 623.12 165.796C623.23 163.035 623.284 160.411 623.284 157.883C623.284 142.274 619.717 128.101 612.596 115.363C605.475 102.624 595.58 92.5787 582.924 85.2392L582.91 85.2256ZM495.41 146.853C497.665 134.456 502.873 125.217 511.019 119.135C519.165 113.053 528.54 110.005 539.174 110.005C549.807 110.005 559.525 113.34 566.987 119.996C574.45 126.652 578.523 135.604 579.193 146.853H495.424H495.41Z" fill="#D5D5D5" stroke="#D5D5D5" stroke-width="1.14808" stroke-miterlimit="10"/>
<path d="M677.871 1.21143H634.463V249.115H677.871V1.21143Z" fill="#D5D5D5" stroke="#D5D5D5" stroke-width="1.14808" stroke-miterlimit="10"/>
<path d="M720.277 1.21143C712.363 1.21143 705.857 3.56225 700.773 8.26391C695.689 12.9656 693.146 18.993 693.146 26.3462C693.146 33.6993 695.689 39.7678 700.773 44.5924C705.857 49.4171 712.363 51.8226 720.277 51.8226C728.19 51.8226 734.696 49.4171 739.78 44.5924C744.865 39.7678 747.407 33.6993 747.407 26.3462C747.407 18.993 744.865 12.9792 739.78 8.26391C734.696 3.56225 728.19 1.21143 720.277 1.21143Z" fill="#D5D5D5" stroke="#D5D5D5" stroke-width="1.14808" stroke-miterlimit="10"/>
<path d="M741.961 78.3423H698.553V249.119H741.961V78.3423Z" fill="#D5D5D5" stroke="#D5D5D5" stroke-width="1.14808" stroke-miterlimit="10"/>
<path d="M861.022 74.2095C847.682 74.2095 836.092 77.189 826.251 83.1618C816.411 89.1345 808.894 97.1711 803.7 107.258L800.31 78.3371H761.986V249.114H805.395V160.971C805.395 145.363 809.29 133.199 817.094 124.479C824.898 115.759 834.903 111.399 847.108 111.399C859.313 111.399 868.703 115.308 874.58 123.099C880.457 130.903 883.396 142.151 883.396 156.844V249.114H926.804V152.703C926.804 126.994 921.036 107.49 909.501 94.1779C897.965 80.8656 881.797 74.2095 860.995 74.2095H861.022Z" fill="#D5D5D5" stroke="#D5D5D5" stroke-width="1.14808" stroke-miterlimit="10"/>
<path d="M1098.26 115.349C1091.14 102.611 1081.24 92.5651 1068.59 85.2256C1055.92 77.8861 1041.33 74.2095 1024.84 74.2095C1007.2 74.2095 991.883 78.0501 978.885 85.7449C965.874 93.4398 955.705 104.169 948.366 117.932C941.013 131.709 937.35 147.427 937.35 165.099C937.35 182.771 941.081 197.929 948.543 211.241C956.006 224.553 966.298 234.886 979.405 242.225C992.512 249.565 1007.56 253.242 1024.51 253.242C1038.08 253.242 1050.23 250.713 1060.97 245.67C1071.7 240.626 1080.75 233.683 1088.1 224.84C1095.44 216.011 1100.7 206.198 1103.88 195.4H1059.78C1056.85 201.824 1052.38 207.059 1046.39 211.063C1040.4 215.082 1033 217.091 1024.18 217.091C1012.43 217.091 1002.42 213.305 994.166 205.733C985.911 198.161 981.332 187.719 980.43 174.407H1108.29C1108.51 171.427 1108.69 168.557 1108.8 165.796C1108.91 163.035 1108.96 160.411 1108.96 157.883C1108.96 142.274 1105.39 128.101 1098.27 115.363L1098.26 115.349ZM981.072 146.853C983.327 134.456 988.535 125.217 996.681 119.135C1004.83 113.053 1014.2 110.005 1024.84 110.005C1035.47 110.005 1045.19 113.34 1052.65 119.996C1060.11 126.652 1064.19 135.604 1064.85 146.853H981.086H981.072Z" fill="#D5D5D5" stroke="#D5D5D5" stroke-width="1.14808" stroke-miterlimit="10"/>
<path d="M470.002 274.616V280.547H461.939V305.026H454.531V280.547H446.467V274.616H469.989H470.002Z" fill="#D5D5D5"/>
<path d="M512.216 274.616V305.026H504.809V292.507H493.287V305.026H485.879V274.616H493.287V286.534H504.809V274.616H512.216Z" fill="#D5D5D5"/>
<path d="M537.07 280.549V286.7H546.993V292.413H537.07V299.083H548.291V305.014H529.662V274.604H548.291V280.536H537.07V280.549Z" fill="#D5D5D5"/>
<path d="M628.404 274.616L620.477 305.026H611.511L606.659 285.003L601.63 305.026H592.664L584.955 274.616H592.882L597.256 296.757L602.668 274.616H610.814L616.008 296.757L620.423 274.616H628.391H628.404Z" fill="#D5D5D5"/>
<path d="M651.679 274.616V305.026H644.271V274.616H651.679Z" fill="#D5D5D5"/>
<path d="M696.374 305.026H688.966L676.57 286.261V305.026H669.162V274.616H676.57L688.966 293.463V274.616H696.374V305.026Z" fill="#D5D5D5"/>
<path d="M741.105 305.026H733.697L721.3 286.261V305.026H713.893V274.616H721.3L733.697 293.463V274.616H741.105V305.026Z" fill="#D5D5D5"/>
<path d="M766.021 280.549V286.7H775.944V292.413H766.021V299.083H777.242V305.014H758.613V274.604H777.242V280.536H766.021V280.549Z" fill="#D5D5D5"/>
<path d="M809.685 305.026L803.357 293.545H801.58V305.026H794.172V274.616H806.609C809.001 274.616 811.051 275.039 812.746 275.873C814.441 276.707 815.698 277.855 816.532 279.317C817.366 280.78 817.79 282.406 817.79 284.197C817.79 286.22 817.216 288.024 816.081 289.609C814.947 291.195 813.252 292.329 811.038 292.985L818.063 305.026H809.698H809.685ZM801.58 288.297H806.172C807.525 288.297 808.55 287.969 809.234 287.299C809.917 286.63 810.259 285.7 810.259 284.484C810.259 283.267 809.917 282.42 809.234 281.75C808.55 281.08 807.539 280.752 806.172 280.752H801.58V288.297Z" fill="#D5D5D5"/>
<path d="M839.572 304.25C837.809 303.526 836.402 302.459 835.349 301.038C834.297 299.617 833.736 297.922 833.682 295.926H841.568C841.677 297.047 842.074 297.908 842.743 298.51C843.413 299.097 844.274 299.398 845.34 299.398C846.406 299.398 847.308 299.152 847.937 298.646C848.566 298.14 848.894 297.443 848.894 296.541C848.894 295.79 848.634 295.175 848.142 294.683C847.636 294.191 847.021 293.781 846.283 293.466C845.545 293.152 844.506 292.783 843.14 292.386C841.172 291.785 839.572 291.17 838.329 290.569C837.085 289.967 836.019 289.065 835.117 287.876C834.215 286.687 833.777 285.143 833.777 283.243C833.777 280.414 834.802 278.199 836.853 276.587C838.903 274.988 841.568 274.181 844.862 274.181C848.156 274.181 850.917 274.988 852.967 276.587C855.017 278.186 856.11 280.427 856.261 283.284H848.251C848.197 282.3 847.828 281.534 847.172 280.96C846.502 280.4 845.654 280.113 844.616 280.113C843.714 280.113 843.003 280.345 842.456 280.824C841.91 281.302 841.636 281.985 841.636 282.887C841.636 283.871 842.101 284.637 843.017 285.184C843.946 285.73 845.381 286.332 847.349 286.96C849.317 287.63 850.903 288.259 852.133 288.86C853.363 289.462 854.415 290.35 855.317 291.498C856.22 292.66 856.657 294.136 856.657 295.967C856.657 297.799 856.22 299.275 855.331 300.696C854.456 302.104 853.172 303.238 851.491 304.072C849.809 304.906 847.841 305.33 845.559 305.33C843.276 305.33 841.336 304.974 839.586 304.25H839.572Z" fill="#D5D5D5"/>
<path d="M902.046 299.313H911.751V305.026H894.639V274.616H902.046V299.313Z" fill="#D5D5D5"/>
<path d="M934.851 274.616V305.026H927.443V274.616H934.851Z" fill="#D5D5D5"/>
<path d="M979.56 305.026H972.152L959.756 286.261V305.026H952.348V274.616H959.756L972.152 293.463V274.616H979.56V305.026Z" fill="#D5D5D5"/>
<path d="M1004.47 280.549V286.7H1014.39V292.413H1004.47V299.083H1015.69V305.014H997.064V274.604H1015.69V280.536H1004.47V280.549Z" fill="#D5D5D5"/>
<path d="M1039.92 274.616V292.807C1039.92 294.625 1040.37 296.033 1041.26 297.017C1042.15 298.001 1043.47 298.493 1045.2 298.493C1046.92 298.493 1048.26 298.001 1049.19 297.017C1050.12 296.033 1050.58 294.639 1050.58 292.807V274.616H1057.99V292.766C1057.99 295.486 1057.41 297.782 1056.25 299.655C1055.09 301.527 1053.55 302.949 1051.59 303.905C1049.64 304.862 1047.46 305.341 1045.07 305.341C1042.68 305.341 1040.53 304.876 1038.63 303.933C1036.75 302.99 1035.25 301.582 1034.15 299.682C1033.06 297.796 1032.5 295.486 1032.5 292.766V274.616H1039.91H1039.92Z" fill="#D5D5D5"/>
<path d="M1097.27 289.24C1096.47 290.702 1095.22 291.878 1093.54 292.766C1091.86 293.668 1089.78 294.106 1087.3 294.106H1082.7V305.026H1075.3V274.616H1087.3C1089.73 274.616 1091.78 275.039 1093.45 275.873C1095.11 276.707 1096.37 277.869 1097.22 279.345C1098.05 280.821 1098.48 282.502 1098.48 284.415C1098.48 286.179 1098.07 287.791 1097.26 289.254L1097.27 289.24ZM1089.91 287.231C1090.6 286.561 1090.95 285.632 1090.95 284.415C1090.95 283.199 1090.6 282.27 1089.91 281.6C1089.21 280.93 1088.16 280.602 1086.75 280.602H1082.72V288.229H1086.75C1088.16 288.229 1089.22 287.901 1089.91 287.231Z" fill="#D5D5D5"/>
<path d="M1144.07 251.286C1158.94 251.286 1170.99 239.232 1170.99 224.361C1170.99 209.491 1158.94 197.436 1144.07 197.436C1129.2 197.436 1117.14 209.491 1117.14 224.361C1117.14 239.232 1129.2 251.286 1144.07 251.286Z" fill="#D5D5D5"/>
</g>
<defs>
<clipPath id="clip0_6943_7191">
<rect width="1171" height="324.797" fill="white" transform="translate(0 0.637207)"/>
</clipPath>
</defs>
</svg>
