<svg width="155" height="156" viewBox="0 0 155 156" fill="none" xmlns="http://www.w3.org/2000/svg">
<path d="M25.8294 100.301C18.7073 100.301 12.9336 94.528 12.9336 87.4056C12.9336 80.2832 18.7073 74.5098 25.8294 74.5098" stroke="#141B34" stroke-width="6" stroke-linecap="round" stroke-linejoin="round"/>
<path d="M128.996 100.301C136.118 100.301 141.892 94.528 141.892 87.4056C141.892 80.2832 136.118 74.5098 128.996 74.5098" stroke="#141B34" stroke-width="6" stroke-linecap="round" stroke-linejoin="round"/>
<path d="M45.1719 45.4941V26.1504" stroke="#141B34" stroke-width="6" stroke-linejoin="round"/>
<path d="M109.652 45.4941V26.1504" stroke="#141B34" stroke-width="6" stroke-linejoin="round"/>
<path d="M45.1725 26.1507C48.7336 26.1507 51.6204 23.2639 51.6204 19.7028C51.6204 16.1417 48.7336 13.2549 45.1725 13.2549C41.6114 13.2549 38.7246 16.1417 38.7246 19.7028C38.7246 23.2639 41.6114 26.1507 45.1725 26.1507Z" stroke="#141B34" stroke-width="6" stroke-linejoin="round"/>
<path d="M109.651 26.1507C113.212 26.1507 116.099 23.2639 116.099 19.7028C116.099 16.1417 113.212 13.2549 109.651 13.2549C106.09 13.2549 103.203 16.1417 103.203 19.7028C103.203 23.2639 106.09 26.1507 109.651 26.1507Z" stroke="#141B34" stroke-width="6" stroke-linejoin="round"/>
<path d="M87.084 45.4941H67.7402C49.5028 45.4941 40.384 45.4941 34.7184 51.3552C29.0527 57.2162 29.0527 66.6491 29.0527 85.5157C29.0527 104.382 29.0527 113.815 34.7184 119.676C40.384 125.537 49.5028 125.537 67.7402 125.537H74.3513C79.4555 125.537 81.2564 126.592 84.7737 130.422C88.6637 134.658 94.6867 140.311 100.136 141.627C107.881 143.499 108.748 140.91 107.02 133.528C106.528 131.426 105.301 128.064 106.595 126.105C107.321 125.007 108.529 124.738 110.946 124.198C114.76 123.346 117.904 121.954 120.106 119.676C125.771 113.815 125.771 104.382 125.771 85.5157C125.771 66.6491 125.771 57.2162 120.106 51.3552C114.44 45.4941 105.321 45.4941 87.084 45.4941Z" stroke="#141B34" stroke-width="6" stroke-linejoin="round"/>
<path d="M61.293 97.0781C64.9689 100.993 70.8211 103.526 77.4128 103.526C84.0045 103.526 89.8566 100.993 93.5326 97.0781" stroke="#141B34" stroke-width="6" stroke-linecap="round" stroke-linejoin="round"/>
<path d="M58.1261 71.2861H58.0684" stroke="#141B34" stroke-width="6" stroke-linecap="round" stroke-linejoin="round"/>
<path d="M96.8139 71.2861H96.7559" stroke="#141B34" stroke-width="6" stroke-linecap="round" stroke-linejoin="round"/>
</svg>
