<svg width="155" height="156" viewBox="0 0 155 156" fill="none" xmlns="http://www.w3.org/2000/svg">
<path d="M13.0024 102.296C14.4396 79.7726 18.6709 63.2904 22.2565 53.7166C24.0667 48.8832 27.9611 45.2838 32.9471 44.0776C60.6733 37.37 94.184 37.37 121.91 44.0776C126.896 45.2838 130.791 48.8832 132.601 53.7166C136.186 63.2904 140.417 79.7726 141.855 102.296C142.714 115.77 132.976 123.194 122.196 128.625C115.329 132.083 110.049 121.875 106.544 113.974C104.629 109.657 100.426 106.98 95.6638 106.98H59.1934C54.4307 106.98 50.2284 109.657 48.3132 113.974C44.8077 121.875 39.5276 132.083 32.6612 128.625C21.9902 123.249 12.1358 115.878 13.0024 102.296Z" stroke="#141B34" stroke-width="6" stroke-linecap="round" stroke-linejoin="round"/>
<path d="M32.293 29.3743L44.9493 26.1504M122.564 29.3743L109.668 26.1504" stroke="#141B34" stroke-width="6" stroke-linecap="round" stroke-linejoin="round"/>
<path d="M58.084 84.1816L48.4121 74.5098M48.4121 74.5098L38.7402 64.8379M48.4121 74.5098L38.7402 84.1816M48.4121 74.5098L58.084 64.8379" stroke="#141B34" stroke-width="6" stroke-linecap="round"/>
<path d="M103.143 64.8379H103.201" stroke="#141B34" stroke-width="6" stroke-linecap="round" stroke-linejoin="round"/>
<path d="M116.039 84.1816H116.097" stroke="#141B34" stroke-width="6" stroke-linecap="round" stroke-linejoin="round"/>
</svg>
