<svg width="94" height="94" viewBox="0 0 94 94" fill="none" xmlns="http://www.w3.org/2000/svg">
<path d="M42.8887 39.019H42.9469M42.903 62.322H42.9613" stroke="#141B34" stroke-width="3.65537" stroke-linecap="round" stroke-linejoin="round"/>
<path d="M27.3691 50.6704H58.4398" stroke="#141B34" stroke-width="3.65537" stroke-linecap="round" stroke-linejoin="round"/>
<path d="M68.148 19.6C71.3655 19.6 73.9738 22.2082 73.9738 25.4257C73.9738 28.6432 71.3655 31.2515 68.148 31.2515C64.9305 31.2515 62.3223 28.6432 62.3223 25.4257C62.3223 22.2082 64.9305 19.6 68.148 19.6Z" stroke="#141B34" stroke-width="3.65537" stroke-linecap="round" stroke-linejoin="round"/>
<path d="M10.9562 43.4616C7.06014 47.8131 6.97633 54.3779 10.552 58.9962C17.6476 68.1605 25.4138 75.9266 34.5781 83.0219C39.1962 86.5978 45.7611 86.5139 50.1125 82.618C61.9263 72.04 72.7452 60.9855 83.1864 48.8368C84.2188 47.636 84.8643 46.164 85.0091 44.5868C85.65 37.6129 86.9666 17.5206 81.5102 12.0641C76.0534 6.60758 55.9612 7.92404 48.9874 8.56484C47.4101 8.70978 45.9382 9.35547 44.7369 10.3877C32.5887 20.8288 21.5341 31.6478 10.9562 43.4616Z" stroke="#141B34" stroke-width="3.65537"/>
</svg>
