<svg width="103" height="103" viewBox="0 0 103 103" fill="none" xmlns="http://www.w3.org/2000/svg">
<path d="M10.9617 40.3916C9.9054 40.3916 8.9415 39.5354 8.99004 38.4162C9.27445 31.8624 10.0712 27.5958 12.3036 24.2207C13.588 22.279 15.1833 20.5902 17.0175 19.2306C21.9752 15.5557 28.9692 15.5557 42.9571 15.5557H60.0197C74.0073 15.5557 81.0016 15.5557 85.9592 19.2306C87.7935 20.5902 89.3885 22.279 90.6729 24.2207C92.9054 27.5954 93.7023 31.8614 93.9866 38.414C94.035 39.5345 93.0699 40.3916 92.0125 40.3916C86.1228 40.3916 81.3484 45.4459 81.3484 51.6807C81.3484 57.9154 86.1228 62.9695 92.0125 62.9695C93.0699 62.9695 94.035 63.8267 93.9866 64.9475C93.7023 71.5001 92.9054 75.7658 90.6729 79.1408C89.3885 81.0822 87.7935 82.7711 85.9592 84.1307C81.0016 87.8057 74.0073 87.8057 60.0197 87.8057H42.9571C28.9692 87.8057 21.9752 87.8057 17.0175 84.1307C15.1833 82.7711 13.588 81.0822 12.3036 79.1408C10.0712 75.7654 9.27445 71.4988 8.99004 64.9453C8.9415 63.8259 9.9054 62.9695 10.9617 62.9695C16.8513 62.9695 21.6258 57.9154 21.6258 51.6807C21.6258 45.4459 16.8513 40.3916 10.9617 40.3916Z" stroke="#141B34" stroke-width="4" stroke-linejoin="round"/>
<path d="M38.7383 15.5557V87.8057" stroke="#141B34" stroke-width="4" stroke-linecap="round" stroke-linejoin="round"/>
</svg>
